Coordinates
version=1
nRows=14
nColumns=24
inDegrees=yes

Units are S.I. units (second, meters, Newtons, ...)
Angles are in degrees.

endheader
time	pelvis_tilt	pelvis_list	pelvis_rotation	pelvis_tx	pelvis_ty	pelvis_tz	hip_flexion_r	hip_adduction_r	hip_rotation_r	knee_angle_r	ankle_angle_r	subtalar_angle_r	mtp_angle_r	hip_flexion_l	hip_adduction_l	hip_rotation_l	knee_angle_l	ankle_angle_l	subtalar_angle_l	mtp_angle_l	lumbar_extension	lumbar_bending	lumbar_rotation
      1.15383333	     -5.67481959	      1.67384286	     -4.33051351	      0.17204637	      1.04411315	      0.28597625	     18.97964905	     -4.89885670	     -4.41317277	    -73.00373390	      3.09064097	     -5.29093361	      5.24508020	     22.27827674	      0.65707653	     -1.14645104	    -29.85289230	     17.60258704	      3.82542387	      1.00146177	     -3.38137681	     -0.90665001	      1.39303944
      1.15800000	     -5.66910821	      1.54940087	     -4.41594887	      0.17743173	      1.04562156	      0.28612523	     19.58816734	     -4.67489632	     -4.49986727	    -73.10627528	      3.37950664	     -5.27655883	      5.22164919	     21.69913160	      0.52602588	     -1.19590868	    -29.38841143	     17.65296024	      3.83202269	      0.99926115	     -3.38890380	     -0.77571746	      1.34991837
      1.16216667	     -5.67049338	      1.45958156	     -4.50559786	      0.18277800	      1.04708514	      0.28629046	     20.20829052	     -4.48689485	     -4.57325449	    -73.16309859	      3.77724529	     -5.02153150	      5.17237605	     21.12306007	      0.43256084	     -1.24564281	    -28.90167481	     17.65825176	      3.82460049	      0.99385956	     -3.42907411	     -0.68878334	      1.24262087
      1.16633333	     -5.64896551	      1.36040229	     -4.57225823	      0.18816734	      1.04860974	      0.28641785	     20.77480125	     -4.29910651	     -4.68308538	    -73.12176596	      4.13016460	     -4.74403980	      5.09855321	     20.50526936	      0.34540834	     -1.25130470	    -28.37856669	     17.67674539	      3.80643797	      0.98675816	     -3.45646964	     -0.59118267	      1.12926164
      1.17050000	     -5.63938818	      1.25902425	     -4.64568703	      0.19353331	      1.05007510	      0.28659166	     21.34664859	     -4.09477951	     -4.78218226	    -73.01478403	      4.49707549	     -4.44362397	      5.05321862	     19.90492762	      0.24454103	     -1.29295594	    -27.86294551	     17.67764610	      3.80028850	      0.98090570	     -3.48314438	     -0.48335873	      1.04148327
      1.17466667	     -5.61422330	      1.14566905	     -4.71006715	      0.19889933	      1.05156567	      0.28675931	     21.88083843	     -3.87881358	     -4.89521118	    -72.82546049	      4.86579637	     -4.09064009	      5.02032995	     19.28271485	      0.13613184	     -1.32164688	    -27.33470988	     17.67309598	      3.80184144	      0.97535190	     -3.53280176	     -0.36989683	      0.94634800
      1.17883333	     -5.57360864	      1.03783490	     -4.77280386	      0.20426390	      1.05307046	      0.28693515	     22.38419798	     -3.66771844	     -5.00944557	    -72.56408446	      5.23863814	     -3.70061001	      5.00115667	     18.63723837	      0.03500555	     -1.35603973	    -26.78839616	     17.65435431	      3.79855892	      0.97014300	     -3.59848685	     -0.25854090	      0.85200663
      1.18300000	     -5.53187260	      0.92775210	     -4.82938182	      0.20962714	      1.05455287	      0.28711733	     22.86924264	     -3.45346657	     -5.13206714	    -72.23079506	      5.60499842	     -3.28802201	      4.99275326	     17.98797378	     -0.06652505	     -1.38341758	    -26.23370605	     17.62800892	      3.79173292	      0.96527548	     -3.66820871	     -0.14766238	      0.75594061
      1.18716667	     -5.47773007	      0.81671678	     -4.88169173	      0.21497805	      1.05602097	      0.28729819	     23.32619295	     -3.23894285	     -5.25868047	    -71.83139820	      5.97096960	     -2.85207482	      4.99634051	     17.32417546	     -0.16716437	     -1.41158700	    -25.67197750	     17.59534423	      3.78620196	      0.96113302	     -3.75487621	     -0.03531378	      0.66020942
      1.19133333	     -5.42889619	      0.68972434	     -4.93257872	      0.22032966	      1.05746054	      0.28749273	     23.76668753	     -2.99948826	     -5.38437598	    -71.35098921	      6.31636496	     -2.43180315	      5.00988863	     16.66976667	     -0.28920415	     -1.45497761	    -25.11854334	     17.54102000	      3.79554520	      0.95755160	     -3.84499317	      0.09921575	      0.57983379
      1.19550000	     -5.36429660	      0.56935744	     -4.97295687	      0.22568017	      1.05886504	      0.28767107	     24.17646572	     -2.77775800	     -5.52693809	    -70.81750202	      6.66697276	     -1.98284723	      5.03109926	     15.99537468	     -0.39782293	     -1.48473302	    -24.55435501	     17.50966131	      3.80680600	      0.95530997	     -3.94651809	      0.22171420	      0.48704819
      1.19966667	     -5.28108863	      0.47575454	     -5.00450793	      0.23103902	      1.06025495	      0.28783024	     24.55445837	     -2.59506065	     -5.67620173	    -70.23149127	      7.01713269	     -1.53138743	      5.06327278	     15.29383714	     -0.46890858	     -1.49696979	    -23.96651401	     17.48453528	      3.79342528	      0.95409775	     -4.06116682	      0.31705767	      0.36901985
      1.20383333	     -5.20747441	      0.35996362	     -5.03477598	      0.23638328	      1.06158421	      0.28800117	     24.92203049	     -2.38124078	     -5.82495747	    -69.57457907	      7.34459802	     -1.10923429	      5.10024559	     14.61030841	     -0.56869772	     -1.52075104	    -23.39514335	     17.44217625	      3.78979355	      0.95367070	     -4.17281908	      0.43910327	      0.27077317
      1.20800000	     -5.13972080	      0.25630121	     -5.06139364	      0.24172636	      1.06284533	      0.28817365	     25.28301271	     -2.18058122	     -5.97148950	    -68.86516199	      7.66382665	     -0.70907099	      5.14378421	     13.93264159	     -0.65436098	     -1.54173723	    -22.81745787	     17.39426129	      3.78287369	      0.95414122	     -4.27936145	      0.54734257	      0.16979548
